<svg width="41" height="45" viewBox="0 0 41 45" fill="none" xmlns="http://www.w3.org/2000/svg">
<path d="M21.8996 0.220317L37.8882 5.14814C39.6779 5.69712 40.888 7.20737 40.8977 8.89988L40.9996 23.5944C41.0311 28.0492 39.2632 32.3694 36.0257 35.7545C34.5367 37.3081 32.6282 38.6426 30.191 39.836L21.5965 44.0565C21.3273 44.1866 21.0314 44.2539 20.7332 44.2561C20.4349 44.2583 20.1366 44.1932 19.8698 44.0651L11.1953 39.9423C8.73142 38.7684 6.8059 37.4535 5.30235 35.9215C2.01151 32.5712 0.182996 28.2705 0.15147 23.8092L0.0495577 9.12555C0.0399164 7.43086 1.22821 5.90977 3.00822 5.33909L18.9362 0.235506C19.882 -0.0726187 20.9369 -0.0791284 21.8996 0.220317ZM29.5454 15.9735C28.83 15.3421 27.6781 15.3464 26.9724 15.9865L18.8581 23.3338L15.5357 20.4001C14.8203 19.7686 13.6708 19.7752 12.9627 20.4153C12.257 21.0554 12.2643 22.0839 12.9797 22.7154L17.5946 26.7948C17.9535 27.1116 18.4191 27.2678 18.8848 27.2635C19.3504 27.2613 19.8136 27.1007 20.1676 26.7796L29.56 18.2736C30.2657 17.6335 30.2584 16.6049 29.5454 15.9735Z" fill="black"/>
</svg>
